<svg width="238" height="25" viewBox="0 0 238 25" fill="none" xmlns="http://www.w3.org/2000/svg">
<path d="M0 24.1843V3.21882C2.98869 1.73191 6.20042 0.988459 9.63518 0.988459C12.5049 0.988459 14.7278 1.71704 16.304 3.17422C17.895 4.63139 18.6905 6.68332 18.6905 9.33002V24.1843H15.3895V9.33002C15.3895 8.69065 15.3226 8.12563 15.1888 7.63495C15.055 7.1294 14.7948 6.59411 14.4082 6.02908C14.0216 5.46406 13.3971 5.03285 12.5347 4.73547C11.6722 4.42322 10.5868 4.2671 9.27832 4.2671C7.3602 4.2671 5.36031 4.57191 3.27864 5.18154V24.1843H0Z" fill="#0069B4"/>
<path d="M24.0636 13.077C24.0636 13.0473 24.0636 12.9953 24.0636 12.9209C24.0636 12.8466 24.0636 12.7871 24.0636 12.7425C24.0636 4.90647 27.4017 0.988459 34.0779 0.988459C35.4756 0.988459 36.7395 1.2115 37.8696 1.65757C39.0145 2.08877 39.9215 2.60176 40.5906 3.19652C41.2597 3.79128 41.847 4.57191 42.3526 5.5384C42.8581 6.49003 43.215 7.30039 43.4232 7.9695C43.6462 8.63861 43.8172 9.44898 43.9361 10.4006C44.0551 11.3225 44.1146 11.9024 44.1146 12.1403V13.1216L44.0254 14.7275H27.4091C27.6173 17.0173 28.3162 18.6827 29.5057 19.7235C30.6952 20.7495 32.4572 21.2625 34.7917 21.2625C38.1075 21.2625 40.717 20.6974 42.6202 19.5674V22.9576C40.4196 24.0133 37.7506 24.5411 34.6132 24.5411C34.5686 24.5411 34.524 24.5411 34.4794 24.5411C33.1412 24.5411 31.9145 24.385 30.7993 24.0727C29.6841 23.7456 28.5838 23.188 27.4984 22.4C26.4278 21.6119 25.5877 20.4298 24.9781 18.8537C24.3684 17.2627 24.0636 15.3371 24.0636 13.077ZM27.4091 11.8057H40.7467C40.7467 11.2853 40.6798 10.7054 40.546 10.066C40.427 9.42667 40.1743 8.60887 39.7877 7.61264C39.4159 6.60154 38.732 5.76144 37.7357 5.09233C36.7544 4.42322 35.5351 4.08867 34.0779 4.08867C31.8178 4.08867 30.1748 4.676 29.1488 5.85065C28.1377 7.02531 27.5578 9.01034 27.4091 11.8057Z" fill="#0069B4"/>
<path d="M49.4351 24.1843V0.898926H57.498C59.0776 0.898926 60.4073 1.10916 61.4869 1.52964C62.5778 1.95012 63.3676 2.51265 63.8563 3.21723C64.345 3.91045 64.6802 4.57526 64.862 5.21165C65.0552 5.84805 65.1518 6.52991 65.1518 7.25722C65.1518 7.92771 65.0552 8.54706 64.862 9.11527C64.6802 9.68348 64.4529 10.1381 64.1802 10.479C63.9188 10.8199 63.6461 11.1154 63.362 11.3654C63.0892 11.604 62.8563 11.7688 62.6631 11.8597L62.3903 11.9961L62.8335 12.1836C63.0154 12.2518 63.3392 12.4393 63.8052 12.7461C64.2825 13.0416 64.6973 13.3769 65.0496 13.7519C65.4132 14.1155 65.7485 14.6383 66.0553 15.3201C66.3621 15.9906 66.5155 16.7236 66.5155 17.5191C66.5155 18.2919 66.4076 19.0135 66.1917 19.684C65.9871 20.3545 65.6178 21.0591 65.0836 21.7978C64.5495 22.5251 63.6915 23.1046 62.5096 23.5365C61.3391 23.9683 59.8902 24.1843 58.1628 24.1843H49.4351ZM52.6909 21.3205L57.9583 21.2864C59.7538 21.2864 61.0834 20.9852 61.9471 20.3829C62.8222 19.7806 63.2597 18.7806 63.2597 17.3828C63.2597 15.9395 62.7824 14.9565 61.8278 14.4337C60.8732 13.911 59.5038 13.6496 57.7196 13.6496H52.6909V21.3205ZM52.6909 10.7517H57.4639C58.9072 10.7517 60.0038 10.5131 60.7539 10.0358C61.5153 9.55848 61.896 8.66638 61.896 7.3595C61.896 6.02988 61.4925 5.10369 60.6857 4.58094C59.8902 4.05818 58.714 3.79681 57.1571 3.79681H52.6909V10.7517Z" fill="#0069B4"/>
<path d="M71.4927 14.5872V0.898926H74.7485V14.8599C74.7485 17.1441 75.2599 18.8317 76.2827 19.9227C77.3055 21.0136 78.8851 21.5591 81.0216 21.5591C83.1694 21.5591 84.7547 21.0136 85.7775 19.9227C86.8003 18.8317 87.3117 17.1441 87.3117 14.8599V0.898926H90.5505V14.5872C90.5505 17.7237 89.7209 20.1613 88.0617 21.9C86.4025 23.6274 84.0558 24.4911 81.0216 24.4911C77.9987 24.4911 75.652 23.6274 73.9814 21.9C72.3223 20.1613 71.4927 17.7237 71.4927 14.5872Z" fill="#0069B4"/>
<path d="M95.8068 24.1843V0.898926H99.0285V21.15H110.62V24.1843H95.8068Z" fill="#0069B4"/>
<path d="M113.231 17.1726C113.231 16.1318 113.417 15.2025 113.789 14.3847C114.175 13.552 114.644 12.8829 115.194 12.3773C115.744 11.8569 116.443 11.4183 117.29 11.0614C118.138 10.6897 118.889 10.422 119.543 10.2585C120.197 10.0801 120.971 9.94624 121.863 9.85702C122.77 9.76781 123.409 9.71576 123.781 9.7009C124.167 9.68603 124.621 9.67859 125.141 9.67859L128.799 9.90163C128.799 7.86456 128.234 6.41482 127.104 5.55242C125.989 4.67514 124.331 4.2365 122.13 4.2365C119.662 4.2365 117.439 4.6008 115.462 5.32938V2.13996C117.707 1.3519 119.989 0.957866 122.309 0.957866C125.506 0.957866 127.944 1.76823 129.624 3.38896C131.305 4.99483 132.145 7.35158 132.145 10.4592V17.3064C132.145 18.7636 131.803 20.0126 131.119 21.0535C130.45 22.0794 129.58 22.8229 128.509 23.2838C127.453 23.7448 126.457 24.0644 125.52 24.2429C124.599 24.4213 123.684 24.5105 122.777 24.5105C122.078 24.5105 121.357 24.4659 120.614 24.3767C119.885 24.2875 119.052 24.0867 118.116 23.7745C117.194 23.4474 116.391 23.0385 115.707 22.5478C115.023 22.0422 114.436 21.3285 113.945 20.4066C113.469 19.4699 113.231 18.3919 113.231 17.1726ZM116.51 17.1726C116.51 20.0275 118.577 21.4549 122.71 21.4549C122.725 21.4549 122.747 21.4549 122.777 21.4549C126.822 21.4549 128.844 20.0721 128.844 17.3064V12.9126C127.833 12.7342 126.48 12.645 124.784 12.645C119.268 12.645 116.51 14.1542 116.51 17.1726Z" fill="#0069B4"/>
<path d="M146.335 24.673C145.171 24.673 144.089 24.6265 143.088 24.5334C142.088 24.4403 141.157 24.289 140.295 24.0795C139.458 23.8468 138.655 23.5442 137.887 23.1718V17.237C139.05 18.1447 140.319 18.8196 141.692 19.2618C143.065 19.6808 144.31 19.8902 145.427 19.8902C146.312 19.8902 147.022 19.7273 147.557 19.4015C148.092 19.0756 148.36 18.5171 148.36 17.7257C148.36 17.1904 148.092 16.7599 147.557 16.434C147.045 16.0849 146.347 15.7824 145.462 15.5264C144.601 15.2471 143.624 14.9212 142.53 14.5488C141.878 14.3161 141.238 14.0368 140.61 13.711C140.005 13.3851 139.458 12.9779 138.969 12.4891C138.48 12.0003 138.084 11.3952 137.782 10.6737C137.479 9.95224 137.328 9.07946 137.328 8.05541C137.328 7.03135 137.514 6.05385 137.887 5.12289C138.282 4.19193 138.864 3.3657 139.632 2.64421C140.4 1.92272 141.378 1.36414 142.565 0.968485C143.752 0.549554 145.136 0.340088 146.719 0.340088C147.673 0.340088 148.534 0.398273 149.302 0.514642C150.071 0.607738 150.792 0.770656 151.467 1.0034C152.165 1.23614 152.863 1.52706 153.562 1.87617V7.88085C153.05 7.43865 152.444 7.01972 151.746 6.62406C151.071 6.2284 150.361 5.89093 149.617 5.61164C148.872 5.33235 148.127 5.16944 147.382 5.12289C146.754 5.09961 146.161 5.1578 145.602 5.29744C145.067 5.41381 144.624 5.63491 144.275 5.96075C143.949 6.28659 143.787 6.72879 143.787 7.28737C143.787 7.86922 143.973 8.33469 144.345 8.6838C144.741 9.00964 145.276 9.28893 145.951 9.52167C146.649 9.73113 147.417 9.95223 148.255 10.185C149.233 10.4643 150.117 10.7785 150.908 11.1276C151.723 11.4767 152.421 11.9072 153.003 12.4193C153.585 12.9313 154.039 13.5597 154.365 14.3045C154.69 15.026 154.853 15.9104 154.853 16.9577C154.853 18.4472 154.504 19.7738 153.806 20.9375C153.108 22.1012 152.119 23.0206 150.839 23.6955C149.582 24.3472 148.081 24.673 146.335 24.673Z" fill="#9D9D9C"/>
<path d="M171.073 24.9999C167.372 24.9999 164.602 24.2552 162.764 22.7656C160.948 21.2761 160.041 18.9138 160.041 15.6787V0.911385H166.639V15.3296C166.639 16.9821 166.953 18.2039 167.582 18.9953C168.233 19.7866 169.292 20.1822 170.758 20.1822C172.062 20.1822 173.074 19.7866 173.796 18.9953C174.517 18.2039 174.878 16.9821 174.878 15.3296V0.911385H180.883V15.6787C180.883 17.8432 180.464 19.612 179.626 20.9852C178.788 22.3583 177.624 23.3708 176.135 24.0224C174.668 24.6741 172.981 24.9999 171.073 24.9999Z" fill="#9D9D9C"/>
<path d="M186.142 24.1843V0.89866H192.496V24.1843H186.142Z" fill="#9D9D9C"/>
<path d="M203.892 24.1843V5.71637H197.678V0.89866H216.495V5.71637H210.176V24.1843H203.892Z" fill="#9D9D9C"/>
<path d="M221.662 24.1843V0.89866H237.895V5.71637H228.015V10.1152H236.534V14.9329H227.981V19.3666H237.895V24.1843H221.662Z" fill="#9D9D9C"/>
</svg>
